<svg width="32" height="32" viewBox="0 0 32 32" fill="none" xmlns="http://www.w3.org/2000/svg">
<path d="M12.64 4.62498C10.3819 3.54686 7.22563 3.01873 3 2.99998C2.60148 2.99457 2.21078 3.11078 1.88 3.33311C1.6085 3.51663 1.38624 3.76405 1.2328 4.05362C1.07935 4.34319 0.999407 4.66602 1 4.99373V22.875C1 24.0837 1.86 24.9956 3 24.9956C7.44188 24.9956 11.8975 25.4106 14.5663 27.9331C14.6028 27.9678 14.6486 27.9909 14.6982 27.9998C14.7478 28.0086 14.7988 28.0026 14.8451 27.9826C14.8913 27.9626 14.9306 27.9295 14.9581 27.8874C14.9857 27.8453 15.0002 27.796 15 27.7456V6.67623C15.0001 6.53408 14.9697 6.39356 14.9108 6.26417C14.852 6.13478 14.766 6.01954 14.6588 5.92623C14.0474 5.40363 13.3684 4.96593 12.64 4.62498ZM30.12 3.33123C29.7891 3.10946 29.3983 2.9939 29 2.99998C24.7744 3.01873 21.6181 3.54436 19.36 4.62498C18.6316 4.96531 17.9524 5.40215 17.3406 5.92373C17.2336 6.0172 17.1479 6.13249 17.0891 6.26186C17.0304 6.39122 17 6.53166 17 6.67373V27.7444C17 27.7927 17.0142 27.84 17.041 27.8804C17.0677 27.9207 17.1058 27.9522 17.1504 27.9709C17.195 27.9897 17.2441 27.9949 17.2916 27.9858C17.3392 27.9767 17.3829 27.9538 17.4175 27.92C19.0219 26.3262 21.8375 24.9937 29.0025 24.9944C29.5329 24.9944 30.0416 24.7836 30.4167 24.4086C30.7918 24.0335 31.0025 23.5248 31.0025 22.9944V4.99436C31.0032 4.666 30.9231 4.34251 30.7692 4.05246C30.6153 3.7624 30.3923 3.5147 30.12 3.33123Z" fill="black"/>
</svg>
