<svg width="24" height="25" viewBox="0 0 24 25" fill="none" xmlns="http://www.w3.org/2000/svg">
<path d="M16 8.74841V16.7484V8.74841ZM12 11.7484V16.7484V11.7484ZM8 14.7484V16.7484V14.7484ZM6 20.7484H18C18.5304 20.7484 19.0391 20.5377 19.4142 20.1626C19.7893 19.7876 20 19.2788 20 18.7484V6.74841C20 6.21798 19.7893 5.70927 19.4142 5.3342C19.0391 4.95913 18.5304 4.74841 18 4.74841H6C5.46957 4.74841 4.96086 4.95913 4.58579 5.3342C4.21071 5.70927 4 6.21798 4 6.74841V18.7484C4 19.2788 4.21071 19.7876 4.58579 20.1626C4.96086 20.5377 5.46957 20.7484 6 20.7484Z" stroke="white" stroke-width="2" stroke-linecap="round" stroke-linejoin="round"/>
</svg>
