<svg width="25" height="24" viewBox="0 0 25 24" fill="none" xmlns="http://www.w3.org/2000/svg">
<path d="M9 16.0561H9.01M9 5.05612H7C6.46957 5.05612 5.96086 5.26684 5.58579 5.64191C5.21071 6.01698 5 6.52569 5 7.05612V19.0561C5 19.5866 5.21071 20.0953 5.58579 20.4703C5.96086 20.8454 6.46957 21.0561 7 21.0561H17C17.5304 21.0561 18.0391 20.8454 18.4142 20.4703C18.7893 20.0953 19 19.5866 19 19.0561V7.05612C19 6.52569 18.7893 6.01698 18.4142 5.64191C18.0391 5.26684 17.5304 5.05612 17 5.05612H15H9ZM9 5.05612C9 5.58655 9.21071 6.09526 9.58579 6.47034C9.96086 6.84541 10.4696 7.05612 11 7.05612H13C13.5304 7.05612 14.0391 6.84541 14.4142 6.47034C14.7893 6.09526 15 5.58655 15 5.05612H9ZM9 5.05612C9 4.52569 9.21071 4.01698 9.58579 3.64191C9.96086 3.26684 10.4696 3.05612 11 3.05612H13C13.5304 3.05612 14.0391 3.26684 14.4142 3.64191C14.7893 4.01698 15 4.52569 15 5.05612H9ZM12 12.0561H15H12ZM12 16.0561H15H12ZM9 12.0561H9.01H9Z" stroke="white" stroke-width="2" stroke-linecap="round" stroke-linejoin="round"/>
</svg>
