<svg width="20" height="20" viewBox="0 0 20 20" fill="none" xmlns="http://www.w3.org/2000/svg">
<path d="M3.4999 0.900024C2.81034 0.900024 2.14902 1.17395 1.66142 1.66155C1.17383 2.14914 0.899902 2.81046 0.899902 3.50002V6.10002C0.899902 6.78959 1.17383 7.45091 1.66142 7.9385C2.14902 8.4261 2.81034 8.70002 3.4999 8.70002H6.0999C6.78947 8.70002 7.45079 8.4261 7.93838 7.9385C8.42597 7.45091 8.6999 6.78959 8.6999 6.10002V3.50002C8.6999 2.81046 8.42597 2.14914 7.93838 1.66155C7.45079 1.17395 6.78947 0.900024 6.0999 0.900024H3.4999ZM3.4999 11.3C2.81034 11.3 2.14902 11.574 1.66142 12.0615C1.17383 12.5491 0.899902 13.2105 0.899902 13.9V16.5C0.899902 17.1896 1.17383 17.8509 1.66142 18.3385C2.14902 18.8261 2.81034 19.1 3.4999 19.1H6.0999C6.78947 19.1 7.45079 18.8261 7.93838 18.3385C8.42597 17.8509 8.6999 17.1896 8.6999 16.5V13.9C8.6999 13.2105 8.42597 12.5491 7.93838 12.0615C7.45079 11.574 6.78947 11.3 6.0999 11.3H3.4999ZM11.2999 3.50002C11.2999 2.81046 11.5738 2.14914 12.0614 1.66155C12.549 1.17395 13.2103 0.900024 13.8999 0.900024H16.4999C17.1895 0.900024 17.8508 1.17395 18.3384 1.66155C18.826 2.14914 19.0999 2.81046 19.0999 3.50002V6.10002C19.0999 6.78959 18.826 7.45091 18.3384 7.9385C17.8508 8.4261 17.1895 8.70002 16.4999 8.70002H13.8999C13.2103 8.70002 12.549 8.4261 12.0614 7.9385C11.5738 7.45091 11.2999 6.78959 11.2999 6.10002V3.50002ZM11.2999 13.9C11.2999 13.2105 11.5738 12.5491 12.0614 12.0615C12.549 11.574 13.2103 11.3 13.8999 11.3H16.4999C17.1895 11.3 17.8508 11.574 18.3384 12.0615C18.826 12.5491 19.0999 13.2105 19.0999 13.9V16.5C19.0999 17.1896 18.826 17.8509 18.3384 18.3385C17.8508 18.8261 17.1895 19.1 16.4999 19.1H13.8999C13.2103 19.1 12.549 18.8261 12.0614 18.3385C11.5738 17.8509 11.2999 17.1896 11.2999 16.5V13.9Z" fill="#2B788B"/>
</svg>
