<svg width="32" height="32" viewBox="0 0 32 32" fill="none" xmlns="http://www.w3.org/2000/svg">
<path d="M6.66667 23.6667V18.6454L12.08 22.1827C13.2456 22.9442 14.6077 23.3498 16 23.3498C17.3923 23.3498 18.7544 22.9442 19.92 22.1827L25.3333 18.6454V23.6667C25.3333 23.8831 25.2632 24.0936 25.1333 24.2667L25.132 24.268L25.1307 24.2707L25.1267 24.276L25.1147 24.2893L25.0987 24.3107L25.0813 24.3333L24.9667 24.468C24.8321 24.6207 24.6911 24.7675 24.544 24.908C24.1747 25.264 23.624 25.7267 22.8773 26.1853C21.3827 27.1053 19.1187 28 16 28C12.8813 28 10.6187 27.1067 9.12133 26.1853C8.52218 25.8202 7.96349 25.3925 7.45467 24.9093C7.25281 24.7146 7.0627 24.508 6.88533 24.2907L6.87333 24.2773L6.86933 24.2707V24.268C6.73872 24.0947 6.66763 23.8837 6.66667 23.6667ZM29.5467 13.504L18.8267 20.508C17.9862 21.0573 17.004 21.3498 16 21.3498C14.996 21.3498 14.0138 21.0573 13.1733 20.508L4 14.5147V21.6667C4 21.9319 3.89464 22.1863 3.70711 22.3738C3.51957 22.5613 3.26522 22.6667 3 22.6667C2.73478 22.6667 2.48043 22.5613 2.29289 22.3738C2.10536 22.1863 2 21.9319 2 21.6667V13.3333C2 13.216 2.02 13.104 2.05733 13C1.98224 12.7875 1.98116 12.5558 2.05425 12.3426C2.12734 12.1294 2.27032 11.9471 2.46 11.8253L13.212 4.93202C14.0441 4.3987 15.0117 4.11523 16 4.11523C16.9883 4.11523 17.9559 4.3987 18.788 4.93202L29.54 11.8253C29.6804 11.9155 29.7961 12.0394 29.8764 12.1857C29.9566 12.3319 29.9991 12.496 29.9997 12.6629C30.0004 12.8297 29.9593 12.9941 29.8801 13.141C29.801 13.288 29.6864 13.4127 29.5467 13.504Z" fill="#BABABA"/>
</svg>
