<svg class="svg-icon" style="width: 1em; height: 1em;vertical-align: middle;fill: currentColor;overflow: hidden;" viewBox="0 0 1024 1024" version="1.1" xmlns="http://www.w3.org/2000/svg">
<path d="M524.288 505.344c-20.992 23.04-41.472 46.592-62.464 69.632 4.608 117.248-6.656 234.496-2.048 351.744H386.048c-6.656-99.328-19.456-198.144-26.112-297.472h-19.968c-5.12 99.328-25.088 198.144-30.72 297.472h-76.8c7.168-117.248-5.12-234.496 2.048-351.744-22.016-16.384-44.032-33.28-66.048-49.664 9.728-83.456 23.04-165.376 50.688-242.688h54.272l50.688 83.456 11.776-73.216h-5.12v-22.528h30.72v22.528h-5.12l17.92 71.68 44.032-81.92h45.568c32.256 72.192 51.712 146.432 60.416 222.72z m94.72-266.24c0.512 4.096 7.68 17.408 17.92 19.968 16.896 4.096 40.448-3.584 40.448-3.584-7.68-6.656-15.872-15.872-20.992-28.16-8.704-21.504-8.704-49.152-7.68-63.488 24.576 43.52 65.536 0.512 102.912 6.144 0.512 15.36-0.512 38.912-8.192 57.856-5.632 13.312-14.336 23.04-22.528 29.696 12.8 4.096 34.816 7.168 49.152-0.512 13.312-7.168 10.24-71.168 8.704-84.48-3.072-24.576-9.728-46.08-20.48-55.296-30.72-26.112-84.992-26.624-113.664-2.56-18.944 15.36-30.72 85.504-25.6 124.416z m1.024 275.968l-28.16 111.616 30.208 141.824h18.944l23.552 165.376h43.008l-4.608-165.376h16.896l1.024 165.376h37.376l19.968-165.376h25.088l19.968-144.896-30.72-112.128 34.304 57.344 35.84-15.36-56.32-262.144H762.88c-9.216 22.528-32.256 38.4-59.392 38.4s-50.176-15.872-59.392-38.4H599.04l-43.008 286.72 30.72 11.776 33.28-74.752zM289.28 199.168c-2.56-24.064-3.072-40.96 4.608-65.024 28.16 37.888 70.144 11.264 102.4 1.024 4.096 19.968 5.632 36.864 4.096 65.024 24.576-20.992 24.064-77.312 10.752-97.28-22.528-33.28-105.472-34.304-130.048-5.632-9.216 11.264-21.504 86.528 8.192 101.888z" fill="#2b788b" /></svg>