<svg width="18" height="19" viewBox="0 0 18 19" fill="none" xmlns="http://www.w3.org/2000/svg">
<path d="M13 5.74841V13.7484V5.74841ZM9 8.74841V13.7484V8.74841ZM5 11.7484V13.7484V11.7484ZM3 17.7484H15C15.5304 17.7484 16.0391 17.5377 16.4142 17.1626C16.7893 16.7876 17 16.2788 17 15.7484V3.74841C17 3.21798 16.7893 2.70927 16.4142 2.3342C16.0391 1.95913 15.5304 1.74841 15 1.74841H3C2.46957 1.74841 1.96086 1.95913 1.58579 2.3342C1.21071 2.70927 1 3.21798 1 3.74841V15.7484C1 16.2788 1.21071 16.7876 1.58579 17.1626C1.96086 17.5377 2.46957 17.7484 3 17.7484Z" stroke="#CCCCCC" stroke-width="2" stroke-linecap="round" stroke-linejoin="round"/>
</svg>
